<svg xmlns="http://www.w3.org/2000/svg" viewBox="0 0 48 48" width="48" height="48"><defs><linearGradient id="a" x1="0" y1="0" x2="1" y2="1"><stop offset="0" stop-color="#fff1a8"/><stop offset="0.45" stop-color="#ffc93c"/><stop offset="1" stop-color="#e08a0b"/></linearGradient><linearGradient id="b" x1="0" y1="0" x2="1" y2="1"><stop offset="0" stop-color="#d6ccff"/><stop offset="1" stop-color="#8b5cf6"/></linearGradient><linearGradient id="c" x1="0" y1="0" x2="1" y2="1"><stop offset="0" stop-color="#a5f3fc"/><stop offset="1" stop-color="#22b8e0"/></linearGradient></defs><path d="M20 10C24.48 21.52 24.48 21.52 36 26C24.48 30.48 24.48 30.48 20 42C15.52 30.48 15.52 30.48 4 26C15.52 21.52 15.52 21.52 20 10z" fill="url(#a)"/><path d="M37 4C39.24 9.76 39.24 9.76 45 12C39.24 14.24 39.24 14.24 37 20C34.76 14.24 34.76 14.24 29 12C34.76 9.76 34.76 9.76 37 4z" fill="url(#b)"/><path d="M38 30C39.68 34.32 39.68 34.32 44 36C39.68 37.68 39.68 37.68 38 42C36.32 37.68 36.32 37.68 32 36C36.32 34.32 36.32 34.32 38 30z" fill="url(#c)"/></svg>
